PathFileType	4	(X/Y/Z)	C:/Users/CLatella/Desktop/xsens/3Novembre/Meri/Meri-020.trc	
DataRate	CameraRate	NumFrames	NumMarkers	Units	OrigDataRate	OrigDataStartFrame	OrigNumFrames	
240.00	240.00	4	64	mm	240.00	465	1238	
Frame#	Time	pHipOrigin			pRightASI			pLeftASI			pRightCSI			pLeftCSI			pRightIschialTub			pLeftIschialTub			pSacrum			pL5SpinalProcess			pL3SpinalProcess			pT12SpinalProcess			pPX			pIJ			pT4SpinalProcess			pT8SpinalProcess			pC7SpinalProcess			pTopOfHead			pRightAuricularis			pLeftAuricularis			pBackOfHead			pRightAcromion			pLeftAcromion			pRightArmLatEpicondyle			pRightArmMedEpicondyle			pLeftArmLatEpicondyle			pLeftArmMedEpicondyle			pRightUlnarStyloid			pRightRadialStyloid			pRightOlecranon			pLeftUlnarStyloid			pLeftRadialStyloid			pLeftOlecranon			pRightTopOfHand			pRightPinky			pRightBallHand			pLeftTopOfHand			pLeftPinky			pLeftBallHand			pRightGreaterTrochanter			pRightKneeLatEpicondyle			pRightKneeMedEpicondyle			pRightPatella			pLeftGreaterTrochanter			pLeftKneeLatEpicondyle			pLeftKneeMedEpicondyle			pLeftPatella			pRightLatMalleolus			pRightMedMalleolus			pRightTibialTub			pLeftLatMalleolus			pLeftMedMalleolus			pLeftTibialTub			pRightHeelFoot			pRightFirstMetatarsal			pRightFifthMetatarsal			pRightPivotFoot			pRightHeelCenter			pRightToe			pLeftHeelFoot			pLeftFirstMetatarsal			pLeftFifthMetatarsal			pLeftPivotFoot			pLeftHeelCenter			pLeftToe			
		X1	Y1	Z1	X2	Y2	Z2	X3	Y3	Z3	X4	Y4	Z4	X5	Y5	Z5	X6	Y6	Z6	X7	Y7	Z7	X8	Y8	Z8	X9	Y9	Z9	X10	Y10	Z10	X11	Y11	Z11	X12	Y12	Z12	X13	Y13	Z13	X14	Y14	Z14	X15	Y15	Z15	X16	Y16	Z16	X17	Y17	Z17	X18	Y18	Z18	X19	Y19	Z19	X20	Y20	Z20	X21	Y21	Z21	X22	Y22	Z22	X23	Y23	Z23	X24	Y24	Z24	X25	Y25	Z25	X26	Y26	Z26	X27	Y27	Z27	X28	Y28	Z28	X29	Y29	Z29	X30	Y30	Z30	X31	Y31	Z31	X32	Y32	Z32	X33	Y33	Z33	X34	Y34	Z34	X35	Y35	Z35	X36	Y36	Z36	X37	Y37	Z37	X38	Y38	Z38	X39	Y39	Z39	X40	Y40	Z40	X41	Y41	Z41	X42	Y42	Z42	X43	Y43	Z43	X44	Y44	Z44	X45	Y45	Z45	X46	Y46	Z46	X47	Y47	Z47	X48	Y48	Z48	X49	Y49	Z49	X50	Y50	Z50	X51	Y51	Z51	X52	Y52	Z52	X53	Y53	Z53	X54	Y54	Z54	X55	Y55	Z55	X56	Y56	Z56	X57	Y57	Z57	X58	Y58	Z58	X59	Y59	Z59	X60	Y60	Z60	X61	Y61	Z61	X62	Y62	Z62	X63	Y63	Z63	X64	Y64	Z64	

465	1.933	172.48680	89.50829	931.04699	266.71663	-29.03243	963.54523	265.66182	210.46002	957.46750	274.35146	-6.17818	1042.45518	273.44733	191.72455	1037.43227	103.12039	39.37963	919.69521	102.66832	138.38123	917.18375	126.82853	90.71379	986.44971	196.99861	91.56769	1031.60569	267.92213	90.61333	1110.36495	337.18809	88.55394	1173.45272	484.20873	91.71837	1110.76678	574.92252	87.29821	1174.15593	480.29085	82.52645	1272.20318	411.97925	85.59042	1228.55407	519.46957	82.22507	1298.02094	767.30005	78.50812	1349.30488	671.66381	15.01851	1328.76117	677.23924	144.86078	1316.35457	646.80039	85.23882	1365.42843	524.94454	-83.48080	1278.58228	498.62448	259.98593	1261.40392	408.36275	-171.43199	997.85172	385.10667	-115.72789	989.31277	362.10173	305.59397	981.67794	340.65390	248.48346	981.27611	419.56385	-96.74129	769.76128	442.36787	-57.86395	783.37337	386.31217	-165.15335	987.75566	407.76000	235.82572	762.02599	421.32187	193.23143	776.84359	345.47589	300.57106	974.74632	591.95019	-58.61738	719.28101	519.77094	-98.24816	723.45003	456.48225	-84.58584	748.51436	571.85854	250.14102	710.03885	496.56509	271.84000	735.60548	437.04358	239.09062	749.61940	168.01641	-60.32517	909.44846	159.67838	-59.72242	528.41035	166.40908	13.36095	522.63400	204.33206	-24.36112	527.30531	161.93869	238.83947	905.48036	147.97499	237.18191	524.59294	159.77883	164.65106	518.76636	194.98945	205.03527	522.83492	155.96142	-76.49895	101.06099	163.14419	-14.16461	97.34404	229.34617	-30.18770	491.24080	149.58232	261.44257	97.94679	152.39515	198.80686	93.37594	220.65653	204.78413	487.22247	121.80562	-37.62161	5.57543	269.52946	-34.20603	7.58460	256.41966	-99.65458	7.43391	281.73514	-69.76825	7.83574	160.53227	-45.45735	10.39743	357.07882	-84.93744	7.88597	109.44925	224.82555	3.46581	256.67081	212.31849	0.10046	247.57934	278.42002	0.30137	270.98611	247.07705	-0.15069	148.72843	230.20006	6.88139	347.13346	257.57493	-2.76260 
466	1.937	172.68772	89.60875	931.04699	266.96778	-28.88174	963.39454	265.86274	210.56048	957.31682	274.75329	-6.07772	1042.30449	273.84917	191.87524	1037.23135	103.32130	39.48009	919.84589	102.86924	138.48169	917.33444	127.07968	90.81425	986.55017	197.40045	91.71837	1031.60569	268.47465	90.71379	1110.21426	337.89130	88.70463	1173.10112	484.76125	91.91929	1110.06357	575.62573	87.54936	1173.25181	481.24521	82.67713	1271.55020	412.78292	85.74111	1228.05178	520.42392	82.42599	1297.21728	768.35486	78.75926	1348.09938	672.71862	15.26965	1327.70636	678.24382	145.11193	1315.29976	647.90543	85.48996	1364.42384	525.89890	-83.22965	1277.97953	499.47838	260.18685	1260.75094	408.51344	-171.83382	997.80149	385.20713	-116.07950	989.16208	362.05150	305.89535	981.42680	340.60367	248.73461	981.07519	419.61408	-96.84175	769.71105	442.36787	-58.01463	783.37337	386.46286	-165.50495	987.65521	407.60932	235.87595	761.82508	421.17118	193.28166	776.69290	345.42567	300.82221	974.49518	592.00042	-58.66761	719.33124	519.82117	-98.29839	723.50026	456.53248	-84.68630	748.46413	571.80831	250.19125	710.03885	496.46463	271.89023	735.50502	436.89289	239.14085	749.46871	168.21733	-60.22472	909.44846	159.82906	-59.67220	528.41035	166.55977	13.41118	522.68423	204.48275	-24.31089	527.30531	162.13960	238.93993	905.48036	148.07545	237.23214	524.59294	159.87929	164.70129	518.76636	195.08991	205.08550	522.83492	155.96142	-76.44872	101.06099	163.14419	-14.11438	97.39427	229.49685	-30.13747	491.29103	149.58232	261.44257	97.94679	152.39515	198.80686	93.37594	220.70676	204.83436	487.22247	121.80562	-37.62161	5.57543	269.52946	-34.20603	7.58460	256.41966	-99.65458	7.43391	281.73514	-69.76825	7.83574	160.53227	-45.40713	10.39743	357.07882	-84.93744	7.88597	109.44925	224.87577	3.46581	256.67081	212.26827	0.05023	247.57934	278.36979	0.30137	270.98611	247.02682	-0.15069	148.72843	230.25029	6.88139	347.13346	257.47447	-2.76260 
467	1.942	172.88863	89.75944	931.04699	267.21892	-28.78129	963.24385	266.11388	210.66093	957.11590	275.15512	-5.92704	1042.10357	274.25100	191.97570	1037.08066	103.47199	39.58055	919.99658	103.01993	138.58214	917.48512	127.38105	90.96494	986.65062	197.75205	91.81883	1031.55546	269.02717	90.86448	1110.01334	338.59450	88.80509	1172.79975	485.31377	92.12021	1109.36037	576.32893	87.80050	1172.34768	482.19956	82.87805	1270.84699	413.63681	85.89180	1227.49926	521.42851	82.62690	1296.41361	769.40968	79.06064	1346.89388	673.77343	15.52080	1326.60131	679.24840	145.36308	1314.19472	649.01047	85.69088	1363.36903	526.90348	-82.97851	1277.32655	500.33227	260.38776	1259.99750	408.66413	-172.18543	997.75126	385.35782	-116.48133	989.06162	361.95105	306.14649	981.17565	340.60367	248.98575	980.82405	419.66431	-96.99243	769.66082	442.41810	-58.11509	783.37337	386.61354	-165.90679	987.55475	407.50886	235.87595	761.57393	421.02049	193.33189	776.49198	345.37544	301.07335	974.24403	592.05065	-58.66761	719.43170	519.92163	-98.39885	723.50026	456.58271	-84.78676	748.46413	571.70786	250.24148	709.98863	496.31394	271.94046	735.40456	436.74221	239.19107	749.31803	168.36801	-60.12426	909.49869	159.92952	-59.62197	528.46058	166.66022	13.46140	522.68423	204.58321	-24.26067	527.35554	162.29029	239.04039	905.43014	148.17591	237.23214	524.59294	159.97975	164.70129	518.76636	195.19036	205.08550	522.83492	155.96142	-76.44872	101.11122	163.14419	-14.11438	97.39427	229.59731	-30.08724	491.29103	149.53209	261.44257	97.94679	152.39515	198.80686	93.37594	220.80722	204.83436	487.17224	121.80562	-37.57138	5.62566	269.52946	-34.20603	7.58460	256.36943	-99.60435	7.48414	281.68491	-69.76825	7.83574	160.53227	-45.40713	10.44766	357.07882	-84.93744	7.88597	109.39903	224.87577	3.46581	256.62058	212.26827	0.05023	247.57934	278.36979	0.30137	270.98611	246.97659	-0.15069	148.72843	230.25029	6.88139	347.13346	257.37402	-2.76260 
468	1.946	173.03932	89.85990	931.04699	267.47007	-28.68083	963.09317	266.36503	210.81162	956.96521	275.55696	-5.82658	1041.95289	274.60260	192.07616	1036.87974	103.62268	39.68101	920.14727	103.17061	138.68260	917.58558	127.68243	91.06540	986.70085	198.15388	91.91929	1031.50523	269.57969	90.96494	1109.81243	339.24748	88.95577	1172.44814	485.86629	92.32112	1108.65716	576.98191	88.00142	1171.39333	483.10369	83.02874	1270.14378	414.49071	86.04248	1226.99697	522.43309	82.77759	1295.66018	770.46449	79.31178	1345.68838	674.82824	15.77194	1325.54650	680.25299	145.61422	1313.13991	650.06528	85.94203	1362.31422	527.90806	-82.77759	1276.67357	501.18617	260.53845	1259.29429	408.86504	-172.58726	997.65080	385.45827	-116.93339	988.96116	361.85059	306.34741	980.92450	340.55344	249.18667	980.62313	419.71454	-97.14312	769.61059	442.41810	-58.26578	783.37337	386.76423	-166.30862	987.45429	407.35817	235.92618	761.37302	420.86980	193.38212	776.34129	345.32521	301.27427	973.99289	592.10088	-58.76807	719.48193	519.97186	-98.44908	723.50026	456.68317	-84.93744	748.46413	571.60740	250.29171	709.93840	496.21349	271.99069	735.25387	436.64175	239.19107	749.11711	168.56893	-60.02380	909.49869	160.02998	-59.57174	528.46058	166.81091	13.51163	522.68423	204.73390	-24.21044	527.35554	162.49121	239.19107	905.43014	148.27637	237.28237	524.59294	160.08021	164.75152	518.81659	195.29082	205.13573	522.83492	155.96142	-76.39849	101.11122	163.14419	-14.06415	97.44449	229.69777	-30.03701	491.29103	149.53209	261.44257	97.94679	152.39515	198.80686	93.37594	220.90767	204.88458	487.17224	121.80562	-37.57138	5.62566	269.52946	-34.20603	7.63483	256.36943	-99.65458	7.48414	281.68491	-69.76825	7.88597	160.53227	-45.35690	10.44766	357.07882	-84.98767	7.93620	109.39903	224.87577	3.46581	256.62058	212.21804	0.05023	247.57934	278.36979	0.25115	270.98611	246.97659	-0.15069	148.72843	230.25029	6.88139	347.13346	257.37402	-2.76260 
